<?xml version="1.0" encoding="utf-8"?>
<!-- Generator: Adobe Illustrator 23.0.2, SVG Export Plug-In . SVG Version: 6.00 Build 0)  -->
<svg version="1.1" id="Layer_1" xmlns="http://www.w3.org/2000/svg" xmlns:xlink="http://www.w3.org/1999/xlink" x="0px" y="0px"
	 viewBox="0 0 80 80" style="enable-background:new 0 0 80 80;" xml:space="preserve">
<style type="text/css">
	.st0{fill:#85858F;}
</style>
<path class="st0" d="M39.7,28.2c-4.4,0-8,3.6-8,8s3.6,8,8,8s8-3.6,8-8S44.1,28.2,39.7,28.2z M39.7,41.6c-3,0-5.4-2.4-5.4-5.4
	s2.4-5.4,5.4-5.4s5.4,2.4,5.4,5.4S42.7,41.6,39.7,41.6z M60.5,36.2c0,5.6-2.2,10.8-6.1,14.7l-2.6,2.6c-0.3,0.3-0.6,0.4-0.9,0.4
	s-0.7-0.1-0.9-0.4c-0.5-0.5-0.5-1.3,0-1.9l1.2-1.2l1.4-1.4c3.4-3.4,5.3-8,5.3-12.9c0-9.7-8.5-18.2-18.2-18.2
	c-10,0-18.2,8.2-18.2,18.2c0,4.9,1.9,9.4,5.3,12.9l12.9,12.9l2.8-2.8c0.5-0.5,1.3-0.5,1.9,0c0.5,0.5,0.5,1.3,0,1.9l-3.7,3.7
	c-0.3,0.3-0.6,0.4-0.9,0.4s-0.8-0.1-1-0.4L25,50.9c-3.9-3.9-6.1-9.2-6.1-14.7c0-11.5,9.3-20.8,20.8-20.8
	C50.8,15.4,60.5,25.2,60.5,36.2z M47.1,57.7c-0.3,0-0.7-0.1-0.9-0.4c-0.2-0.2-0.4-0.6-0.4-0.9c0-0.4,0.1-0.7,0.4-0.9l0.2-0.2
	c0.1-0.1,0.1-0.1,0.2-0.1s0.2-0.1,0.2-0.1c0.4-0.1,0.9,0.1,1.2,0.4c0.2,0.2,0.4,0.6,0.4,0.9c0,0.3-0.1,0.7-0.4,0.9l-0.2,0.2
	c-0.1,0-0.1,0.1-0.2,0.1s-0.2,0.1-0.2,0.1H47.1z"/>
</svg>
