<?xml version="1.0" encoding="UTF-8"?>
<svg width="13px" height="13px" viewBox="0 0 13 13" version="1.1" xmlns="http://www.w3.org/2000/svg" xmlns:xlink="http://www.w3.org/1999/xlink">
    <!-- Generator: Sketch 48.1 (47250) - http://www.bohemiancoding.com/sketch -->
    <title>icon_time</title>
    <desc>Created with Sketch.</desc>
    <defs></defs>
    <g id="EP-HD-01" stroke="none" stroke-width="1" fill="none" fill-rule="evenodd" transform="translate(-207.000000, -455.000000)">
        <g id="INFO-2" transform="translate(139.000000, 416.000000)" fill="#272832">
            <g id="infos" transform="translate(69.000000, 36.000000)">
                <g id="icon_time2" transform="translate(0.000000, 3.000000)">
                    <g id="icon_time">
                        <path d="M5.961792,0.24 C2.674512,0.24 -4.8e-05,2.91456 -4.8e-05,6.20184 C-4.8e-05,7.09584 0.192912,7.95552 0.574512,8.75856 L0.605472,8.82312 C1.197312,10.03032 2.192112,11.01288 3.406512,11.58984 C4.208112,11.97072 5.067792,12.16392 5.961792,12.16392 C6.802752,12.16392 7.615632,11.99208 8.378112,11.65368 C8.656032,11.53032 8.926272,11.38464 9.181872,11.22024 C9.328032,11.12616 9.370272,10.93128 9.276192,10.78512 C9.182112,10.63872 8.987472,10.59624 8.841072,10.69056 C8.612592,10.8372 8.370912,10.96752 8.122512,11.07792 C7.441152,11.38056 6.714192,11.53392 5.961792,11.53392 C5.161872,11.53392 4.393152,11.36136 3.676752,11.0208 C2.590512,10.5048 1.700592,9.62568 1.172112,8.5476 L1.142592,8.48664 C0.802272,7.77048 0.629712,7.00176 0.629712,6.20184 C0.629712,3.26184 3.021792,0.87 5.961792,0.87 C8.901792,0.87 11.293872,3.26184 11.293872,6.20184 C11.293872,7.19664 11.018112,8.16672 10.496832,9.00768 C10.405152,9.15552 10.450512,9.34968 10.598352,9.44136 C10.746432,9.53328 10.940352,9.4872 11.032032,9.3396 C11.615232,8.39904 11.923632,7.314 11.923632,6.20184 C11.923632,2.91456 9.249072,0.24 5.961792,0.24" id="Fill-1" stroke="#272832" stroke-width="0.1"></path>
                        <path d="M9.80603151,9.94796966 C9.64460557,10.0927641 9.63255886,10.339539 9.77952874,10.4991994 C9.8575312,10.5839354 9.96444577,10.6267494 10.0719627,10.6267494 C10.1668305,10.6267494 10.2619996,10.5931523 10.3378938,10.5250662 C10.3466277,10.5173359 10.3598791,10.5042539 10.3680106,10.4956316 C10.5152817,10.3368632 10.5149805,10.0796821 10.3541569,9.93399566 C10.1930321,9.78860658 9.95360373,9.7889039 9.80603151,9.94796966" id="Fill-4"></path>
                        <path d="M9.188664,5.886792 L6.276744,5.886792 L6.276744,2.974872 C6.276744,2.801112 6.135624,2.659992 5.961864,2.659992 C5.787864,2.659992 5.646984,2.801112 5.646984,2.974872 L5.646984,6.201672 C5.646984,6.375672 5.787864,6.516792 5.961864,6.516792 L9.188664,6.516792 C9.362664,6.516792 9.503544,6.375672 9.503544,6.201672 C9.503544,6.027912 9.362664,5.886792 9.188664,5.886792" id="Fill-6" stroke="#272832" stroke-width="0.1"></path>
                    </g>
                </g>
            </g>
        </g>
    </g>
</svg>